# xmcd CD database file
#
# Track frame offsets:
#	150
#	27917
#	42817
#	68631
#	96566
#	126660
#	152323
#	167549
#
# Disc length: 2696 seconds
#
# Revision: 0
# Processed by: cddbd v1.5.2PL0 Copyright (c) Steve Scherf et al.
# Submitted via: CDex 1.78
#
DISCID=610a8608
DTITLE=The Preacher Men - Preaching Out Loud!
DYEAR=2016
DGENRE=Jazz
TTITLE0=Loverman
TTITLE1=Speeddate
TTITLE2=I want a little girl
TTITLE3=Grumpy old man
TTITLE4=Stricks tricks
TTITLE5=Going back to Memphis
TTITLE6=Preaching out loud
TTITLE7=The show has begun
EXTD=YEAR: 2016
EXTT0=
EXTT1=
EXTT2=
EXTT3=
EXTT4=
EXTT5=
EXTT6=
EXTT7=
PLAYORDER=
